Coordinates
version=1
nRows=9
nColumns=63
inDegrees=yes

Units are S.I. units (second, meters, Newtons, ...)
If the header above contains a line with 'inDegrees', this indicates whether rotational values are in degrees (yes) or radians (no).

endheader
time	pelvis_tilt	pelvis_list	pelvis_rotation	pelvis_tx	pelvis_ty	pelvis_tz	hip_flexion_r	hip_adduction_r	hip_rotation_r	knee_angle_r	knee_angle_r_beta	ankle_angle_r	subtalar_angle_r	mtp_angle_r	hip_flexion_l	hip_adduction_l	hip_rotation_l	knee_angle_l	knee_angle_l_beta	ankle_angle_l	subtalar_angle_l	mtp_angle_l	L5_S1_Flex_Ext	L5_S1_Lat_Bending	L5_S1_axial_rotation	L4_L5_Flex_Ext	L4_L5_Lat_Bending	L4_L5_axial_rotation	L3_L4_Flex_Ext	L3_L4_Lat_Bending	L3_L4_axial_rotation	L2_L3_Flex_Ext	L2_L3_Lat_Bending	L2_L3_axial_rotation	L1_L2_Flex_Ext	L1_L2_Lat_Bending	L1_L2_axial_rotation	L1_T12_Flex_Ext	L1_T12_Lat_Bending	L1_T12_axial_rotation	Abs_r3	Abs_r2	Abs_r1	Abs_t1	Abs_t2	neck_flexion	neck_bending	neck_rotation	arm_flex_r	arm_add_r	arm_rot_r	elbow_flex_r	pro_sup_r	wrist_flex_r	wrist_dev_r	arm_flex_l	arm_add_l	arm_rot_l	elbow_flex_l	pro_sup_l	wrist_flex_l	wrist_dev_l
1.016667	-1.104044	-17.248527	91.987845	0.171941	0.981189	0.293231	5.146393	-4.143427	11.180546	0.880083	0.015360	19.121644	-11.061472	0.000000	8.500684	-0.443218	-12.659619	6.208882	0.108365	23.286961	15.817763	0.000000	0.129455	-0.086729	-1.010013	0.240412	-0.115349	-1.073139	0.212682	-0.210872	-1.073139	0.147955	-0.210872	-0.883761	0.120212	-0.176857	-0.820635	0.073971	-0.134343	-0.757510	0.924687	-0.981091	-5.617388	0.000000	0.000000	28.215486	0.611148	-1.318786	17.184266	8.185804	192.865286	0.380509	1.933210	-46.997269	-23.259790	10.528206	-14.683528	60.942652	49.842611	78.859596	-8.621945	-0.919482
1.033333	-1.035633	-17.561272	92.075371	0.171525	0.980908	0.293149	5.463696	-4.116400	11.071381	0.882032	0.015394	19.122692	-11.008013	0.000000	8.833287	-0.469351	-12.591964	6.204159	0.108283	23.245314	15.850921	0.000000	0.115478	-0.059482	-1.117919	0.214454	-0.079111	-1.187789	0.189719	-0.144624	-1.187789	0.131980	-0.144624	-0.978179	0.107233	-0.121295	-0.908309	0.065984	-0.092137	-0.838439	0.824847	-0.672868	-6.217528	0.000000	0.000000	27.945664	0.752640	-0.401338	17.291732	8.204269	193.516376	0.378845	1.941292	-47.153280	-23.190633	10.017833	-14.641919	59.625178	49.963261	78.760362	-7.546697	-0.618637
1.050000	-0.970307	-17.872011	92.044052	0.171209	0.980590	0.292889	5.786533	-4.077375	11.082398	0.887413	0.015488	19.100272	-11.007351	0.000000	9.124426	-0.504503	-12.605447	6.159923	0.107511	23.231477	15.860630	0.000000	0.098979	-0.030888	-1.210314	0.183814	-0.041082	-1.285958	0.162613	-0.075102	-1.285958	0.113123	-0.075102	-1.059025	0.091912	-0.062988	-0.983380	0.056557	-0.047846	-0.907735	0.706999	-0.349416	-6.731403	0.000000	0.000000	27.598820	0.941061	0.620811	17.393552	8.210850	194.389514	0.375470	1.969032	-47.229805	-23.133390	9.408893	-14.536596	58.171669	50.037803	78.631455	-6.450422	-0.326314
1.066667	-0.914705	-18.191086	91.916426	0.171020	0.980229	0.292494	6.125163	-4.028939	11.171610	0.894496	0.015612	19.066388	-11.027857	0.000000	9.394423	-0.546773	-12.687081	6.087249	0.106243	23.243514	15.859843	0.000000	0.081943	-0.002629	-1.290221	0.152177	-0.003497	-1.370860	0.134625	-0.006392	-1.370860	0.093653	-0.006392	-1.128943	0.076093	-0.005361	-1.048304	0.046822	-0.004072	-0.967666	0.585314	-0.029740	-7.175821	0.000000	0.000000	27.188367	1.193859	1.702590	17.500539	8.220407	195.280401	0.372052	1.992275	-46.906605	-23.094133	8.690544	-14.369398	56.557243	50.053781	78.497165	-5.382986	-0.072640
1.083333	-0.892408	-18.511482	91.672723	0.171011	0.979822	0.291988	6.478121	-3.989364	11.336751	0.903763	0.015774	19.041631	-11.033958	0.000000	9.639058	-0.578229	-12.829497	5.989424	0.104535	23.277128	15.818003	0.000000	0.065064	0.022068	-1.353464	0.120830	0.029350	-1.438055	0.106893	0.053655	-1.438055	0.074362	0.053655	-1.184281	0.060418	0.045000	-1.099689	0.037177	0.034183	-1.015098	0.464745	0.249634	-7.527559	0.000000	0.000000	26.724494	1.513393	2.817093	17.605697	8.241163	196.100472	0.370172	2.029324	-46.196663	-23.087224	7.886527	-14.156223	54.848138	50.011507	78.398599	-4.421060	0.099447
1.100000	-0.904946	-18.825129	91.302078	0.171193	0.979369	0.291399	6.840441	-3.958442	11.596206	0.915470	0.015978	19.028291	-11.026268	0.000000	9.850756	-0.599791	-13.066768	5.866376	0.102388	23.336126	15.762450	0.000000	0.048498	0.042699	-1.398761	0.090066	0.056789	-1.486184	0.079678	0.103817	-1.486184	0.055428	0.103817	-1.223916	0.045035	0.087071	-1.136494	0.027712	0.066140	-1.049071	0.346417	0.483015	-7.779491	0.000000	0.000000	26.225288	1.894710	3.949138	17.710410	8.275217	196.938139	0.370825	2.062198	-45.196497	-23.098901	7.024196	-13.899800	53.113661	49.911139	78.259795	-3.632473	0.178175
1.116667	-0.955405	-19.129115	90.826749	0.171542	0.978867	0.290761	7.207431	-3.942864	11.881915	0.932503	0.016275	19.054211	-10.926704	0.000000	10.035029	-0.605914	-13.385953	5.729034	0.099991	23.420553	15.698467	0.000000	0.033207	0.058305	-1.428779	0.061669	0.077546	-1.518078	0.054556	0.141763	-1.518078	0.037953	0.141763	-1.250182	0.030836	0.118896	-1.160883	0.018975	0.090314	-1.071584	0.237197	0.659558	-7.946440	0.000000	0.000000	25.699332	2.317519	5.071245	17.811187	8.324210	197.865861	0.374347	2.091491	-44.051250	-23.103204	6.153672	-13.631541	51.477621	49.779625	78.002203	-3.077679	0.184124
1.133333	-1.048477	-19.422917	90.246716	0.172073	0.978313	0.290088	7.577179	-3.946600	12.247841	0.953550	0.016643	19.105428	-10.804149	0.000000	10.193195	-0.593797	-13.821403	5.581071	0.097408	23.537237	15.666217	0.000000	0.020640	0.067635	-1.442877	0.038330	0.089954	-1.533057	0.033909	0.164447	-1.533057	0.023589	0.164447	-1.262518	0.019166	0.137921	-1.172338	0.011793	0.104766	-1.082158	0.147427	0.765099	-8.024850	0.000000	0.000000	25.140367	2.753895	6.160386	17.904281	8.398230	198.892705	0.379693	2.120231	-42.803972	-23.084959	5.293080	-13.377673	49.950626	49.651660	77.657178	-2.693367	0.161145
1.150000	-1.187236	-19.708501	89.594646	0.172753	0.977714	0.289395	7.944150	-3.977554	12.676803	0.974926	0.017016	19.174778	-10.683641	0.000000	10.331367	-0.553590	-14.315353	5.425006	0.094684	23.672505	15.637819	0.000000	0.011704	0.069598	-1.446255	0.021736	0.092566	-1.536646	0.019229	0.169222	-1.536646	0.013377	0.169222	-1.265473	0.010869	0.141925	-1.175082	0.006688	0.107808	-1.084691	0.083603	0.787311	-8.043635	0.000000	0.000000	24.553600	3.193333	7.197194	17.993651	8.506318	200.028532	0.385233	2.126365	-41.468326	-23.040552	4.490175	-13.174910	48.633589	49.553939	77.141613	-2.519198	0.089829
